<?xml version="1.0" encoding="utf-8"?>
<!-- Generator: Adobe Illustrator 17.0.0, SVG Export Plug-In . SVG Version: 6.00 Build 0)  -->
<!DOCTYPE svg PUBLIC "-//W3C//DTD SVG 1.1//EN" "http://www.w3.org/Graphics/SVG/1.1/DTD/svg11.dtd">
<svg version="1.1" id="Calque_1" xmlns="http://www.w3.org/2000/svg" xmlns:xlink="http://www.w3.org/1999/xlink" x="0px" y="0px"
	 width="24.48px" height="22.464px" viewBox="6.828 4.32 24.48 22.464" enable-background="new 6.828 4.32 24.48 22.464"
	 xml:space="preserve">
<path d="M28.14,8.352c0,0.318-0.258,0.576-0.576,0.576c-2.632,0-13.496,0-16.128,0c-0.318,0-0.576-0.258-0.576-0.576
	c0-0.885,0-2.571,0-3.456c0-0.318,0.258-0.576,0.576-0.576c2.632,0,13.496,0,16.128,0c0.318,0,0.576,0.258,0.576,0.576
	C28.14,5.781,28.14,7.467,28.14,8.352z M28.14,16.128c0,0.318-0.258,0.576-0.576,0.576c-2.632,0-13.496,0-16.128,0
	c-0.318,0-0.576-0.258-0.576-0.576c0-0.885,0-2.571,0-3.456c0-0.318,0.258-0.576,0.576-0.576c2.632,0,13.496,0,16.128,0
	c0.318,0,0.576,0.258,0.576,0.576C28.14,13.557,28.14,15.243,28.14,16.128z M11.436,26.784c2.545,0,4.608-2.063,4.608-4.608
	s-2.063-4.608-4.608-4.608s-4.608,2.063-4.608,4.608S8.891,26.784,11.436,26.784z M31.308,23.904c0,0.318-0.258,0.576-0.576,0.576
	c-2.316,0-10.932,0-13.248,0c-0.318,0-0.576-0.258-0.576-0.576c0-0.885,0-2.571,0-3.456c0-0.318,0.258-0.576,0.576-0.576
	c2.316,0,10.932,0,13.248,0c0.318,0,0.576,0.258,0.576,0.576C31.308,21.333,31.308,23.019,31.308,23.904z"/>
<g id="Calque_2">
	<path fill="#FFFFFF" d="M12.408,21.376V19.36c0-0.153-0.061-0.299-0.169-0.407c-0.108-0.108-0.255-0.169-0.407-0.169
		c-0.185,0-0.391,0-0.576,0c-0.153,0-0.299,0.061-0.407,0.169c-0.108,0.108-0.169,0.255-0.169,0.407v2.016H8.664
		c-0.153,0-0.299,0.061-0.407,0.169c-0.108,0.108-0.169,0.255-0.169,0.407c0,0.185,0,0.391,0,0.576c0,0.153,0.061,0.299,0.169,0.407
		c0.108,0.108,0.255,0.169,0.407,0.169h2.016v2.016c0,0.153,0.061,0.299,0.169,0.407c0.108,0.108,0.255,0.169,0.407,0.169
		c0.185,0,0.391,0,0.576,0c0.153,0,0.299-0.061,0.407-0.169c0.108-0.108,0.169-0.255,0.169-0.407v-2.016h2.016
		c0.153,0,0.299-0.061,0.407-0.169C14.939,22.827,15,22.681,15,22.528c0-0.185,0-0.391,0-0.576c0-0.153-0.061-0.299-0.169-0.407
		c-0.108-0.108-0.255-0.169-0.407-0.169C14.424,21.376,12.408,21.376,12.408,21.376z"/>
</g>
</svg>
