<?xml version="1.0" encoding="utf-8"?>
<!-- Generator: Adobe Illustrator 17.0.0, SVG Export Plug-In . SVG Version: 6.00 Build 0)  -->
<!DOCTYPE svg PUBLIC "-//W3C//DTD SVG 1.1//EN" "http://www.w3.org/Graphics/SVG/1.1/DTD/svg11.dtd">
<svg version="1.1" id="Calque_1" xmlns="http://www.w3.org/2000/svg" xmlns:xlink="http://www.w3.org/1999/xlink" x="0px" y="0px"
	 width="24.48px" height="22.107px" viewBox="7.26 6.48 24.48 22.107" enable-background="new 7.26 6.48 24.48 22.107"
	 xml:space="preserve">
<g display="none">
	<path display="inline" d="M25.265,29.206l-4.351-6.526H7.26V6.48h24.48v16.2h-5.17L25.265,29.206z M8.7,21.24h12.985l2.849,4.274
		l0.855-4.274h4.91V7.92H8.7V21.24z"/>
</g>
<g>
	<path d="M27.42,6.48H11.58c-2.386,0-4.32,1.934-4.32,4.32v7.56c0,2.386,1.934,4.32,4.32,4.32h9.369l3.903,5.907l1.256-5.907h1.311
		c2.386,0,4.32-1.934,4.32-4.32V10.8C31.74,8.414,29.806,6.48,27.42,6.48z"/>
</g>
</svg>
